# xmcd
#
# Track frame offsets:
# 150
# 14137
# 27025
# 38100
# 49137
# 61925
# 73837
# 85575
# 99000
# 111025
# 123425
# 135350
# 146700
# 161462
# 173187
# 186725
# 196375
# 207662
# 218375
# 231075
#
# Disc length: 3242 seconds
#
#
# Revision: 3
# Processed by: cddbd v1.5.1PL0 Copyright (c) Steve Scherf et al.
# Submitted via: FreeRIP 2.941 
#
DISCID=1a0ca814
DTITLE=Various Artist - The Most Requested - Country and Western Songs
DYEAR=1995
DGENRE=Country
TTITLE0=Johnny Cash - Orange Blossom Special
TTITLE1=Tammy Wynette and George Jones - Southern California
TTITLE2=Roger Miller - King Of The Road
TTITLE3=Billie Jo Spears - If You Want Me
TTITLE4=Johnny Horton - North To Alaska
TTITLE5=Guy Mitchell - Heartaches By The Number
TTITLE6=Tennessee Ernie Ford - Sixteen Tons
TTITLE7=Dean Martin - Rio Bravo
TTITLE8=Charly Rich - The Most Beautiful Girl In The World
TTITLE9=Jack and Misty - Tennessee Birdwalk
TTITLE10=Frankie Laine - High Noon
TTITLE11=Billie "Crash" Craddock - Rub It In
TTITLE12=Kingston Trio - Tom Dooley
TTITLE13=Johnny Cash - Ring Of Fire
TTITLE14=Lee Marvin - Wandrin' Star
TTITLE15=New Christy Minstrels - Green Green
TTITLE16=Roy Orbison - Blue Bayou
TTITLE17=John D. Loudermilk - Blue Train
TTITLE18=The Browns - The Three Bells
TTITLE19=Billie Jo Spears - What I've Got In Mind
EXTD=
EXTT0=
EXTT1=
EXTT2=
EXTT3=
EXTT4=
EXTT5=
EXTT6=
EXTT7=
EXTT8=
EXTT9=
EXTT10=
EXTT11=
EXTT12=
EXTT13=
EXTT14=
EXTT15=
EXTT16=
EXTT17=
EXTT18=
EXTT19=
PLAYORDER=
